<?xml version="1.0" encoding="iso-8859-1"?>
<!-- Generator: Adobe Illustrator 19.0.0, SVG Export Plug-In . SVG Version: 6.00 Build 0)  -->
<svg version="1.1" id="Layer_1" xmlns="http://www.w3.org/2000/svg" xmlns:xlink="http://www.w3.org/1999/xlink" x="0px" y="0px"
	 viewBox="0 0 356.736 356.736" style="enable-background:new 0 0 356.736 356.736;" xml:space="preserve">
<g>
	<title>online-education-study-degree-university-mouse-globe</title>
	<path style="fill:#9CE7F7;" d="M82.743,276.647c13.189-2.213,26.53-3.406,39.902-3.567v-39.011H78.061
		C78.377,248.37,79.943,262.618,82.743,276.647z"/>
	<path style="fill:#9CE7F7;" d="M78.061,222.923h44.584v-39.011c-13.359-0.22-26.68-1.468-39.847-3.734
		C79.968,194.259,78.383,208.563,78.061,222.923z"/>
	<path style="fill:#9CE7F7;" d="M133.791,284.226v60.745c15.772-4.291,29.481-26.416,37.45-57.179
		C158.866,285.661,146.346,284.469,133.791,284.226z"/>
	<path style="fill:#F78628;" d="M172.802,52.334l-42.8,14.267c-1.14,0.378-2.371,0.378-3.511,0L83.634,52.334v56.008
		c28.764-10.671,60.403-10.671,89.167,0V52.334H172.802z"/>
	<path style="fill:#9CE7F7;" d="M85.306,169.143c12.339,2.126,24.82,3.318,37.339,3.567v-60.411
		C106.985,116.535,93.22,138.492,85.306,169.143z"/>
	<path style="fill:#9CE7F7;" d="M122.645,344.693v-60.466c-12.555,0.243-25.075,1.435-37.45,3.567
		C93.164,318.333,106.873,340.457,122.645,344.693z"/>
	<path style="fill:#9CE7F7;" d="M37.769,302.673c15.778,19.178,37.247,32.841,61.303,39.011
		C86.818,326.58,78.284,308.807,74.161,289.8C61.528,292.513,49.298,296.84,37.769,302.673z"/>
	<path style="fill:#9CE7F7;" d="M184.784,278.653c14.128,3.092,27.761,8.118,40.516,14.936
		c11.881-17.666,18.686-38.253,19.672-59.519h-55.451C189.247,249.04,187.662,263.959,184.784,278.653z"/>
	<path style="fill:#9CE7F7;" d="M184.728,177.837c2.928,14.857,4.532,29.945,4.793,45.085h55.73
		c-0.955-21.436-7.822-42.189-19.84-59.965C212.599,169.766,198.909,174.773,184.728,177.837z"/>
	<path style="fill:#9CE7F7;" d="M157.42,341.683c24.055-6.17,45.525-19.832,61.303-39.011
		c-11.546-5.838-23.796-10.164-36.447-12.874C178.169,308.802,169.655,326.574,157.42,341.683z"/>
	<path style="fill:#9CE7F7;" d="M317.699,239.641c-15.389,0-27.865,12.476-27.865,27.865v33.438
		c0,15.389,12.476,27.865,27.865,27.865s27.865-12.476,27.865-27.865v-33.438C345.563,252.117,333.088,239.641,317.699,239.641z
		 M323.272,273.079h-11.146v-16.719h11.146V273.079z"/>
	<path style="fill:#9CE7F7;" d="M173.638,180.011c-13.162,2.322-26.484,3.626-39.847,3.901v39.011h44.584
		C178.063,208.507,176.478,194.147,173.638,180.011z"/>
	<circle style="fill:#9CE7F7;" cx="211.812" cy="83.599" r="5.573"/>
	<path style="fill:#9CE7F7;" d="M66.915,234.068h-55.73c0.956,21.324,7.762,41.973,19.673,59.687
		c12.754-6.818,26.388-11.844,40.516-14.935C68.58,264.063,67.088,249.087,66.915,234.068z"/>
	<path style="fill:#9CE7F7;" d="M133.791,112.299v60.466c12.518-0.249,25-1.441,37.339-3.567
		C163.216,138.492,149.451,116.535,133.791,112.299z"/>
	<path style="fill:#9CE7F7;" d="M133.791,273.079c13.377,0.216,26.717,1.465,39.902,3.734c2.809-14.083,4.376-28.387,4.681-42.744
		H133.79v39.01H133.791z"/>
	<path style="fill:#9CE7F7;" d="M71.708,177.837c-14.101-3.066-27.715-8.054-40.46-14.824
		c-11.988,17.766-18.835,38.498-19.784,59.909h55.73C67.362,207.79,68.873,192.703,71.708,177.837z"/>
	<path style="fill:#9CE7F7;" d="M99.016,115.309c-24.055,6.17-45.525,19.832-61.303,39.011
		c11.478,5.815,23.651,10.141,36.224,12.874C78.098,148.167,86.691,130.389,99.016,115.309z"/>
	<polygon style="fill:#F78628;" points="194.202,33.443 128.218,11.43 62.234,33.443 128.218,55.456 	"/>
	<path style="fill:#9CE7F7;" d="M182.22,166.914c12.573-2.732,24.746-7.058,36.224-12.874
		c-15.778-19.178-37.247-32.841-61.303-39.011C169.467,130.111,178.059,147.887,182.22,166.914z"/>
	<path style="fill:#414A52;" d="M323.272,228.941V103.104c0-13.85-11.228-25.078-25.078-25.078s-25.078,11.228-25.078,25.078v58.516
		c0,9.234-7.485,16.719-16.719,16.719h-10.254c-12.205-28.527-34.287-51.697-62.194-65.259v-64.48l22.292-7.412v26.75
		c-8.705,3.078-13.268,12.63-10.19,21.336s12.63,13.268,21.336,10.19s13.268-12.63,10.19-21.336
		c-1.683-4.761-5.429-8.506-10.19-10.19V33.443c0.006-2.396-1.52-4.528-3.79-5.294L130.001,0.283c-1.14-0.378-2.371-0.378-3.511,0
		L42.896,28.148c-2.924,0.961-4.515,4.11-3.555,7.034c0.553,1.682,1.872,3.002,3.555,3.555L72.544,48.6v64.479
		C8.784,143.837-17.97,220.457,12.786,284.219c30.757,63.76,107.378,90.515,171.138,59.758
		c57.538-27.756,85.856-93.643,66.397-154.491h6.075c15.389,0,27.865-12.476,27.865-27.865v-58.516
		c0-7.695,6.238-13.932,13.932-13.932s13.932,6.238,13.932,13.932v125.838c-19.176,2.768-33.415,19.19-33.438,38.565v33.438
		c0,21.545,17.466,39.011,39.011,39.011c21.545,0,39.011-17.466,39.011-39.011v-33.438
		C356.687,248.132,342.448,231.71,323.272,228.941z M133.791,183.912c13.359-0.22,26.68-1.468,39.847-3.734
		c2.831,14.081,4.416,28.385,4.737,42.745h-44.584V183.912z M133.791,172.766v-60.467c15.66,4.291,29.425,26.249,37.339,56.844
		C158.792,171.288,146.311,172.499,133.791,172.766z M122.645,112.355v60.411c-12.518-0.249-25-1.441-37.339-3.567
		c7.914-30.651,21.679-52.665,37.339-56.9C122.645,112.299,122.645,112.355,122.645,112.355z M122.645,183.912v39.011H78.061
		c0.275-14.412,1.823-28.772,4.626-42.912C95.886,182.339,109.245,183.643,122.645,183.912z M66.915,222.923h-55.73
		c0.955-21.436,7.822-42.189,19.84-59.965c12.745,6.77,26.358,11.758,40.46,14.824C68.628,192.663,67.099,207.77,66.915,222.923z
		 M66.915,234.068c0.255,14.969,1.822,29.888,4.681,44.584c-14.128,3.092-27.761,8.118-40.516,14.936
		c-11.862-17.671-18.647-38.258-19.617-59.519h55.73h-0.278V234.068z M78.061,234.068h44.584v39.011
		c-13.377,0.216-26.717,1.465-39.902,3.734C79.934,262.73,78.367,248.426,78.061,234.068z M122.645,284.226v60.745
		c-15.772-4.291-29.481-26.416-37.45-57.179C97.57,285.661,110.09,284.469,122.645,284.226z M133.791,344.971v-60.745
		c12.555,0.243,25.075,1.435,37.45,3.567c-7.969,30.54-21.679,52.665-37.45,56.9V344.971z M133.791,273.079v-39.011h44.584
		c-0.26,14.297-1.771,28.544-4.514,42.577C160.616,274.424,147.22,273.233,133.791,273.079z M189.521,234.068h55.73
		c-0.956,21.324-7.762,41.973-19.673,59.687c-12.754-6.818-26.388-11.844-40.516-14.935
		C187.856,264.063,189.348,249.087,189.521,234.068z M189.521,222.923c-0.242-15.139-1.827-30.227-4.737-45.085
		c14.101-3.066,27.715-8.054,40.46-14.824c11.969,17.771,18.796,38.504,19.728,59.909L189.521,222.923L189.521,222.923z
		 M218.5,154.042c-11.478,5.815-23.651,10.141-36.224,12.874c-4.12-18.904-12.614-36.578-24.8-51.606
		c23.898,6.159,45.238,19.716,60.968,38.732L218.5,154.042L218.5,154.042z M211.812,89.171c-3.078,0-5.573-2.495-5.573-5.573
		c0-3.078,2.495-5.573,5.573-5.573s5.573,2.495,5.573,5.573C217.385,86.676,214.89,89.171,211.812,89.171z M128.218,11.43
		l65.984,22.013l-65.984,22.013L62.234,33.443L128.218,11.43z M83.634,52.278l42.8,14.267c1.14,0.378,2.371,0.378,3.511,0
		l42.8-14.267v56.008c-28.764-10.671-60.403-10.671-89.167,0V52.334L83.634,52.278z M99.016,115.253
		c-12.186,15.027-20.68,32.702-24.8,51.606c-12.573-2.732-24.746-7.058-36.224-12.874c15.753-19.005,37.113-32.543,61.024-38.676
		C99.016,115.31,99.016,115.253,99.016,115.253z M37.713,302.673c11.546-5.838,23.796-10.164,36.447-12.874
		c4.115,19.027,12.649,36.82,24.911,51.94c-24.063-6.185-45.533-19.868-61.302-39.066H37.713z M157.309,341.683
		c12.275-15.098,20.827-32.871,24.967-51.884c12.616,2.736,24.827,7.082,36.336,12.929c-15.757,19.138-37.183,32.779-61.191,38.955
		L157.309,341.683L157.309,341.683z M345.563,300.945c0,15.389-12.476,27.865-27.865,27.865s-27.865-12.476-27.865-27.865v-33.438
		c0-15.389,12.476-27.865,27.865-27.865s27.865,12.476,27.865,27.865V300.945z"/>
	<rect x="312.126" y="256.361" style="fill:#414A52;" width="11.146" height="16.719"/>
	<rect x="217.385" y="334.383" style="fill:#414A52;" width="11.146" height="11.146"/>
	<rect x="239.677" y="334.383" style="fill:#414A52;" width="11.146" height="11.146"/>
	<rect x="261.969" y="334.383" style="fill:#414A52;" width="11.146" height="11.146"/>
</g>
<g>
</g>
<g>
</g>
<g>
</g>
<g>
</g>
<g>
</g>
<g>
</g>
<g>
</g>
<g>
</g>
<g>
</g>
<g>
</g>
<g>
</g>
<g>
</g>
<g>
</g>
<g>
</g>
<g>
</g>
</svg>
